<svg xmlns="http://www.w3.org/2000/svg" viewBox="0 0 192 192" width="192" height="192">
  <rect width="192" height="192" rx="40" fill="#0D2B0D"/>
  <rect width="192" height="192" rx="40" fill="#0D2B0D"/>
  <!-- Stylised leaf / cannabis mark -->
  <g transform="translate(96,96)">
    <!-- Central stem -->
    <line x1="0" y1="52" x2="0" y2="-10" stroke="#C8A84B" stroke-width="4" stroke-linecap="round"/>
    <!-- Main leaf up -->
    <path d="M0,-10 C-28,-30 -44,-10 -30,16 C-18,36 0,20 0,20 C0,20 18,36 30,16 C44,-10 28,-30 0,-10Z" fill="#4CAF50" opacity="0.9"/>
    <!-- Left leaf -->
    <path d="M-4,10 C-24,-4 -48,0 -42,22 C-36,40 -10,32 -4,18Z" fill="#4CAF50" opacity="0.75"/>
    <!-- Right leaf -->
    <path d="M4,10 C24,-4 48,0 42,22 C36,40 10,32 4,18Z" fill="#4CAF50" opacity="0.75"/>
    <!-- Lower left -->
    <path d="M-2,22 C-18,12 -38,20 -32,38 C-26,52 -6,44 -2,30Z" fill="#3a8f3e" opacity="0.7"/>
    <!-- Lower right -->
    <path d="M2,22 C18,12 38,20 32,38 C26,52 6,44 2,30Z" fill="#3a8f3e" opacity="0.7"/>
  </g>
  <!-- USOS wordmark -->
  <text x="96" y="163" text-anchor="middle" font-family="-apple-system,BlinkMacSystemFont,'Segoe UI',sans-serif" font-size="14" font-weight="700" letter-spacing="0.18em" fill="#C8A84B">USOS</text>
</svg>
